<svg xmlns="http://www.w3.org/2000/svg" xml:space="preserve" x="0px" y="0px" viewBox="0 0 180 180">
  <style>
    path { fill: #000; }
    @media (prefers-color-scheme: dark) {
      path { fill: #000; }
    }
  </style>
  <path d="m177.4 111.3-24.6-19.4c-1.5-1.2-1.5-3.1 0-4.3l24.6-19.4c1.5-1.2 2.1-3.2 1.4-4.5-.7-1.3-2.8-1.7-4.6-.9l-29.4 11.7c-1.8.7-3.4-.2-3.8-2.1L136.6 41c-.2-1.9-1.7-3.4-3.2-3.4-1.4 0-3 1.5-3.2 3.4l-4.4 31.4c-.2 1.9-1.9 2.8-3.8 2.1L93.3 62.8c-1.8-.7-4.7-.7-6.5 0l-29 11.5c-1.8.7-3.4-.2-3.8-2.1l-4.3-31.4c-.2-1.9-1.7-3.4-3.2-3.4s-3 1.5-3.2 3.4L39 72.2c-.2 1.9-1.9 2.8-3.8 2.1L5.8 62.6c-1.8-.7-3.9-.2-4.6.9-.7 1.3-.1 3.3 1.4 4.5l24.6 19.4c1.5 1.2 1.5 3.1 0 4.3L2.6 111.1c-1.5 1.2-2.1 3.3-1.4 4.7s2.8 2 4.6 1.3L35 105.5c1.8-.7 3.4.2 3.7 2.1l4.1 31.6c.2 1.9 1.9 3.4 3.7 3.4 1.8 0 3.4-1.5 3.7-3.4l4.1-31.6c.2-1.9 1.9-2.8 3.7-2.1L86.6 117c1.8.7 4.7.7 6.5 0l28.7-11.5c1.8-.7 3.4.2 3.7 2.1l4.3 31.6c.2 1.9 1.9 3.4 3.7 3.4s3.4-1.5 3.7-3.4l4.1-31.6c.2-1.9 1.9-2.8 3.7-2.1l29.1 11.7c1.8.7 3.8.1 4.6-1.3.9-1.3.2-3.5-1.3-4.6zm-62.8-19.2-21.8 16.7c-1.5 1.2-4 1.2-5.6 0L65.5 92.1c-1.5-1.2-1.5-3.1 0-4.3l21.8-17.2c1.5-1.2 4-1.2 5.4 0l21.8 17.2c1.6 1.2 1.6 3.1.1 4.3z"/>
</svg>
